<svg width="60" height="60" viewBox="0 0 60 60" fill="none" xmlns="http://www.w3.org/2000/svg">
<g id="medical/doctor-bag">
<path id="Vector" d="M35 5H25C23.0109 5 21.1032 5.79018 19.6967 7.1967C18.2902 8.60322 17.5 10.5109 17.5 12.5V15H12.5C10.5109 15 8.60322 15.7902 7.1967 17.1967C5.79018 18.6032 5 20.5109 5 22.5V47.5C5 49.4891 5.79018 51.3968 7.1967 52.8033C8.60322 54.2098 10.5109 55 12.5 55H47.5C49.4891 55 51.3968 54.2098 52.8033 52.8033C54.2098 51.3968 55 49.4891 55 47.5V22.5C55 20.5109 54.2098 18.6032 52.8033 17.1967C51.3968 15.7902 49.4891 15 47.5 15H42.5V12.5C42.5 10.5109 41.7098 8.60322 40.3033 7.1967C38.8968 5.79018 36.9891 5 35 5ZM22.5 12.5C22.5 11.837 22.7634 11.2011 23.2322 10.7322C23.7011 10.2634 24.337 10 25 10H35C35.663 10 36.2989 10.2634 36.7678 10.7322C37.2366 11.2011 37.5 11.837 37.5 12.5V15H22.5V12.5ZM50 22.5V47.5C50 48.163 49.7366 48.7989 49.2678 49.2678C48.7989 49.7366 48.163 50 47.5 50H12.5C11.837 50 11.2011 49.7366 10.7322 49.2678C10.2634 48.7989 10 48.163 10 47.5V22.5C10 21.837 10.2634 21.2011 10.7322 20.7322C11.2011 20.2634 11.837 20 12.5 20H47.5C48.163 20 48.7989 20.2634 49.2678 20.7322C49.7366 21.2011 50 21.837 50 22.5ZM32.5 32.5H37.5V37.5H32.5V42.5H27.5V37.5H22.5V32.5H27.5V27.5H32.5V32.5Z" fill="#0DFF85"/>
</g>
</svg>
