<svg width="40" height="40" viewBox="0 0 40 40" fill="none" xmlns="http://www.w3.org/2000/svg">
<g id="text/quote">
<path id="Vector" d="M29.9999 33.3333C31.768 33.3333 33.4637 32.6309 34.714 31.3807C35.9642 30.1304 36.6666 28.4347 36.6666 26.6666C36.6666 24.8985 35.9642 23.2028 34.714 21.9526C33.4637 20.7023 31.768 20 29.9999 20C28.8262 20.0069 27.6755 20.3268 26.6666 20.9266V18.3333C26.6692 16.124 27.5481 14.0059 29.1103 12.4437C30.6725 10.8814 32.7906 10.0026 34.9999 9.99996C35.4419 9.99996 35.8659 9.82436 36.1784 9.5118C36.491 9.19924 36.6666 8.77532 36.6666 8.33329C36.6666 7.89127 36.491 7.46734 36.1784 7.15478C35.8659 6.84222 35.4419 6.66663 34.9999 6.66663C31.9068 6.67015 28.9414 7.90045 26.7542 10.0876C24.5671 12.2748 23.3368 15.2402 23.3333 18.3333V26.6666C23.3333 28.4347 24.0356 30.1304 25.2859 31.3807C26.5361 32.6309 28.2318 33.3333 29.9999 33.3333ZM29.9999 23.3333C30.6592 23.3333 31.3037 23.5288 31.8518 23.8951C32.4 24.2613 32.8272 24.7819 33.0795 25.391C33.3318 26.0001 33.3978 26.6703 33.2692 27.3169C33.1406 27.9635 32.8231 28.5575 32.3569 29.0236C31.8908 29.4898 31.2968 29.8073 30.6502 29.9359C30.0036 30.0645 29.3334 29.9985 28.7243 29.7462C28.1152 29.4939 27.5946 29.0667 27.2284 28.5185C26.8621 27.9704 26.6666 27.3259 26.6666 26.6666C26.6666 25.7826 27.0178 24.9347 27.6429 24.3096C28.268 23.6845 29.1159 23.3333 29.9999 23.3333ZM14.9999 9.99996C15.4419 9.99996 15.8659 9.82436 16.1784 9.5118C16.491 9.19924 16.6666 8.77532 16.6666 8.33329C16.6666 7.89127 16.491 7.46734 16.1784 7.15478C15.8659 6.84222 15.4419 6.66663 14.9999 6.66663C11.9068 6.67015 8.9414 7.90045 6.75424 10.0876C4.56708 12.2748 3.33678 15.2402 3.33325 18.3333V26.6666C3.33325 27.9852 3.72425 29.2741 4.45679 30.3704C5.18933 31.4668 6.23052 32.3212 7.4487 32.8258C8.66687 33.3304 10.0073 33.4624 11.3005 33.2052C12.5937 32.948 13.7816 32.313 14.714 31.3807C15.6463 30.4483 16.2813 29.2604 16.5385 27.9672C16.7957 26.674 16.6637 25.3336 16.1591 24.1154C15.6545 22.8972 14.8 21.856 13.7037 21.1235C12.6074 20.391 11.3185 20 9.99992 20C8.82616 20.0069 7.6755 20.3268 6.66659 20.9266V18.3333C6.66923 16.124 7.54806 14.0059 9.11029 12.4437C10.6725 10.8814 12.7906 10.0026 14.9999 9.99996ZM9.99992 23.3333C10.6592 23.3333 11.3037 23.5288 11.8518 23.8951C12.4 24.2613 12.8272 24.7819 13.0795 25.391C13.3318 26.0001 13.3978 26.6703 13.2692 27.3169C13.1406 27.9635 12.8231 28.5575 12.3569 29.0236C11.8908 29.4898 11.2968 29.8073 10.6502 29.9359C10.0036 30.0645 9.33339 29.9985 8.72431 29.7462C8.11522 29.4939 7.59462 29.0667 7.22835 28.5185C6.86208 27.9704 6.66659 27.3259 6.66659 26.6666C6.66659 25.7826 7.01777 24.9347 7.6429 24.3096C8.26802 23.6845 9.11586 23.3333 9.99992 23.3333Z" fill="#0DFF85"/>
</g>
</svg>
