<svg width="16" height="17" viewBox="0 0 16 17" fill="none" xmlns="http://www.w3.org/2000/svg">
<path d="M9.80463 14.3047C9.67889 14.4261 9.51049 14.4933 9.33569 14.4918C9.16089 14.4903 8.99369 14.4201 8.87008 14.2965C8.74647 14.1729 8.67636 14.0057 8.67484 13.8309C8.67332 13.6561 8.74052 13.4877 8.86196 13.362L13.0573 9.16665H1.33329C1.15648 9.16665 0.986912 9.09642 0.861888 8.97139C0.736864 8.84637 0.666626 8.6768 0.666626 8.49999C0.666626 8.32318 0.736864 8.15361 0.861888 8.02858C0.986912 7.90356 1.15648 7.83332 1.33329 7.83332H13.0573L8.86196 3.63799C8.74052 3.51225 8.67332 3.34385 8.67484 3.16905C8.67636 2.99425 8.74647 2.82705 8.87008 2.70344C8.99369 2.57984 9.16089 2.50972 9.33569 2.5082C9.51049 2.50668 9.67889 2.57388 9.80463 2.69532L15.138 8.02865C15.1997 8.09072 15.2487 8.16434 15.282 8.24532C15.3158 8.32595 15.3333 8.41253 15.3333 8.49999C15.3333 8.58745 15.3158 8.67403 15.282 8.75465C15.2487 8.83563 15.1997 8.90926 15.138 8.97132L9.80463 14.3047Z" fill="white"/>
</svg>
